<svg xmlns="http://www.w3.org/2000/svg" width="20.755" height="31.997" viewBox="0 0 20.755 31.997">
  <g id="hourglass" transform="translate(-89.957 -0.02)">
    <g id="Group_14817" data-name="Group 14817" transform="translate(89.957 0.02)">
      <path id="Path_2992" data-name="Path 2992" d="M109.125,28.811H108.7V27a12.085,12.085,0,0,0-4.964-9.682,1.61,1.61,0,0,1,0-2.606A12.1,12.1,0,0,0,108.7,5.034V3.226h.422a1.6,1.6,0,0,0,0-3.206H91.544a1.6,1.6,0,0,0,0,3.206h.422V5.034a12.086,12.086,0,0,0,4.961,9.682,1.612,1.612,0,0,1,0,2.606A12.085,12.085,0,0,0,91.966,27v1.808h-.422a1.6,1.6,0,0,0,0,3.206h17.582a1.6,1.6,0,0,0,0-3.206ZM92.955,27a11.086,11.086,0,0,1,4.562-8.883,2.6,2.6,0,0,0,0-4.2,11.092,11.092,0,0,1-4.559-8.883V3.226h14.758V5.034a11.092,11.092,0,0,1-4.559,8.883,2.6,2.6,0,0,0,0,4.2A11.087,11.087,0,0,1,107.714,27v1.808H92.955Z" transform="translate(-89.957 -0.02)" fill="#555"/>
      <path id="Path_2993" data-name="Path 2993" d="M169.024,189.183a5.93,5.93,0,0,0-.644-.461,5.635,5.635,0,0,1-2.729-4.771v-3.574a1.389,1.389,0,0,1,.934-1.33,4.6,4.6,0,0,0,1.859-1.151c.205-.209.4-.428.58-.652h-7.734c.184.224.375.443.58.652a4.6,4.6,0,0,0,1.859,1.151,1.389,1.389,0,0,1,.934,1.33v3.574a5.635,5.635,0,0,1-2.729,4.771,5.921,5.921,0,0,0-.644.461A5.384,5.384,0,0,0,159.1,193.3v.306h12.112V193.3A5.384,5.384,0,0,0,169.024,189.183Z" transform="translate(-154.779 -166.168)" fill="#dbc37c"/>
    </g>
  </g>
</svg>
