<svg xmlns="http://www.w3.org/2000/svg" width="31.997" height="31.997" viewBox="0 0 31.997 31.997">
  <g id="modern-measure-scale" transform="translate(-10.658 -10.658)">
    <g id="Icon" transform="translate(10.658 10.658)">
      <path id="Path_2994" data-name="Path 2994" d="M18.254,42.655a.7.7,0,0,1-.487-.2L10.86,35.546a.7.7,0,0,1,0-.981L34.565,10.86a.7.7,0,0,1,.981,0l6.907,6.907a.7.7,0,0,1,0,.981L18.748,42.453a.7.7,0,0,1-.494.2Zm-5.919-7.6,5.919,5.919L40.979,18.254l-5.919-5.919Z" transform="translate(-10.658 -10.658)" fill="#fff"/>
    </g>
    <path id="Path_2995" data-name="Path 2995" d="M78.225,328.975l-.978.978h0l2.487,2.458a.684.684,0,1,0,.953-.981Z" transform="translate(-62.247 -297.56)" fill="#dbc37c"/>
    <path id="Path_2996" data-name="Path 2996" d="M143.225,263.308l-.978.978h0l2.487,2.458a.684.684,0,0,0,.953-.981Z" transform="translate(-123.008 -236.175)" fill="#dbc37c"/>
    <path id="Path_2997" data-name="Path 2997" d="M209.781,197.049l-.978.978h0l2.487,2.458a.684.684,0,1,0,.953-.981Z" transform="translate(-185.224 -174.236)" fill="#dbc37c"/>
    <path id="Path_2998" data-name="Path 2998" d="M270.225,136.827l-.978.978h0l2.487,2.458a.684.684,0,0,0,.953-.981Z" transform="translate(-241.726 -117.942)" fill="#dbc37c"/>
    <path id="Path_2999" data-name="Path 2999" d="M326.225,80.975l-.978.978h0l2.487,2.458a.684.684,0,0,0,.953-.981Z" transform="translate(-294.075 -65.732)" fill="#dbc37c"/>
  </g>
</svg>
