<svg xmlns="http://www.w3.org/2000/svg" width="28.129" height="31.997" viewBox="0 0 28.129 31.997">
  <g id="modern-max-duration" transform="translate(-67.192 -42.256)">
    <path id="Path_2990" data-name="Path 2990" d="M242.818,166.936A1.066,1.066,0,0,0,241.752,168v7.466a1.067,1.067,0,0,0,.313.754l5.279,5.279a1.067,1.067,0,1,0,1.508-1.508l-4.967-4.967V168a1.067,1.067,0,0,0-1.067-1.066Z" transform="translate(-161.495 -115.348)" fill="#dd3535"/>
    <path id="Path_2991" data-name="Path 2991" d="M93.2,58.4a1.067,1.067,0,0,0,2.112-.3,14.193,14.193,0,0,0-12.92-12.065v-1.65h2.133a1.066,1.066,0,0,0,0-2.133h-6.4a1.066,1.066,0,0,0,0,2.133h2.133v1.644A14.13,14.13,0,1,0,95.311,62.138a1.067,1.067,0,0,0-2.112-.3,12,12,0,1,1,0-3.432Z" transform="translate(0)" fill="#fff"/>
  </g>
</svg>
