<svg xmlns="http://www.w3.org/2000/svg" width="28.122" height="31.997" viewBox="0 0 28.122 31.997">
  <g id="modern-open-problems" transform="translate(-30.999)">
    <path id="Path_2987" data-name="Path 2987" d="M54.747,16.427V13.436a9.7,9.7,0,0,0-6.874-9.27V2.812a2.812,2.812,0,0,0-5.624,0V4.166a9.7,9.7,0,0,0-6.874,9.27v2.991A14.719,14.719,0,0,1,31.26,26.661a.937.937,0,0,0,.677,1.586h8.531a4.688,4.688,0,0,0,9.185,0h8.531a.937.937,0,0,0,.677-1.586A14.719,14.719,0,0,1,54.747,16.427ZM44.123,2.812a.937.937,0,1,1,1.875,0V3.8c-.309-.03-.621-.045-.937-.045s-.629.016-.937.045Zm.937,27.31a2.817,2.817,0,0,1-2.651-1.875h5.3a2.817,2.817,0,0,1-2.651,1.875Zm-11.1-3.75a16.574,16.574,0,0,0,3.292-9.945V13.436a7.812,7.812,0,0,1,15.623,0v2.991a16.574,16.574,0,0,0,3.292,9.945Z" fill="#fff"/>
    <path id="Path_2988" data-name="Path 2988" d="M393.336,61.724a.937.937,0,0,0,1.875,0,13.969,13.969,0,0,0-4.118-9.943.937.937,0,0,0-1.326,1.326,12.107,12.107,0,0,1,3.569,8.617Z" transform="translate(-336.09 -48.288)" fill="red"/>
    <path id="Path_2989" data-name="Path 2989" d="M31.937,62.662a.937.937,0,0,0,.937-.937,12.107,12.107,0,0,1,3.569-8.617.937.937,0,1,0-1.326-1.326A13.969,13.969,0,0,0,31,61.725.937.937,0,0,0,31.937,62.662Z" transform="translate(-0.001 -48.289)" fill="red"/>
  </g>
</svg>
