<svg xmlns="http://www.w3.org/2000/svg" width="17" height="17" viewBox="0 0 17 17">
  <g id="Group_15324" data-name="Group 15324" transform="translate(1761 17922)">
    <rect id="Rectangle_1388" data-name="Rectangle 1388" width="17" height="17" transform="translate(-1761 -17922)" fill="#fff" opacity="0"/>
    <g id="Group_15318" data-name="Group 15318" transform="translate(-1759.402 -17921.5)">
      <g id="Group_15311" data-name="Group 15311" transform="translate(0 0)">
        <path id="Union_32" data-name="Union 32" d="M0,9.1A6.9,6.9,0,0,1,4.782,2.533L6.7.083a.276.276,0,0,1,.394,0l1.922,2.45A6.9,6.9,0,1,1,0,9.1Z" transform="translate(0 0)" fill="#339fd8" stroke="rgba(0,0,0,0)" stroke-miterlimit="10" stroke-width="1"/>
      </g>
      <g id="Group_15312" data-name="Group 15312" transform="translate(3.673 4.574)">
        <path id="Path_1887" data-name="Path 1887" d="M79.093,32.427H78.31a.277.277,0,0,1-.3-.29c.065-2.031-.366-1.876,1.1-1.867,1.409-.01.992-.148,1.057,1.843a.281.281,0,0,1-.313.316Z" transform="translate(-76.074 -23.8)" fill="#fff"/>
        <path id="Path_1888" data-name="Path 1888" d="M74.732,15.335c-.255,0-.51,0-.766,0-.208.013-.249-.224-.277-.381a1.815,1.815,0,0,1,.7-1.63c.348-.333.825-.472,1.193-.773a.662.662,0,0,0-.058-1.059,1.363,1.363,0,0,0-1.44-.051,4.306,4.306,0,0,0-.73.767.276.276,0,0,1-.435.051q-.526-.4-1.048-.8a.269.269,0,0,1-.071-.4,3.461,3.461,0,0,1,5.026-1.11,2.363,2.363,0,0,1,.717,3.343,5.6,5.6,0,0,1-1.318,1c-.614.516-.231,1-.731,1.04Z" transform="translate(-71.745 -9.296)" fill="#fff"/>
      </g>
    </g>
  </g>
</svg>
