<svg xmlns="http://www.w3.org/2000/svg" width="17" height="17" viewBox="0 0 17 17">
  <g id="Group_15326" data-name="Group 15326" transform="translate(1725 17922)">
    <rect id="Rectangle_1389" data-name="Rectangle 1389" width="17" height="17" transform="translate(-1725 -17922)" fill="#fff" opacity="0"/>
    <g id="Group_15320" data-name="Group 15320" transform="translate(-1723.402 -17921.5)">
      <g id="Group_15314" data-name="Group 15314" transform="translate(0 0)">
        <path id="Union_32" data-name="Union 32" d="M0,9.1A6.9,6.9,0,0,1,4.782,2.533L6.7.083a.276.276,0,0,1,.394,0l1.922,2.45A6.9,6.9,0,1,1,0,9.1Z" transform="translate(0 0)" fill="#f79d25" stroke="rgba(0,0,0,0)" stroke-miterlimit="10" stroke-width="1"/>
      </g>
      <g id="Group_15315" data-name="Group 15315" transform="translate(5.767 4.573)">
        <path id="Path_3118" data-name="Path 3118" d="M196.014,35.131a.987.987,0,1,1,.987-.987.99.99,0,0,1-.987.987" transform="translate(-194.88 -26.244)" fill="#fff"/>
        <path id="Path_3119" data-name="Path 3119" d="M196.7,6.761l-.331,3.959a.8.8,0,0,1-1.6,0l-.331-3.959a1.135,1.135,0,1,1,2.266-.094.591.591,0,0,1,0,.094" transform="translate(-194.439 -5.532)" fill="#fff"/>
      </g>
    </g>
  </g>
</svg>
