<svg xmlns="http://www.w3.org/2000/svg" width="17" height="17" viewBox="0 0 17 17">
  <g id="Group_15325" data-name="Group 15325" transform="translate(1743 17922)">
    <rect id="Rectangle_1390" data-name="Rectangle 1390" width="17" height="17" transform="translate(-1743 -17922)" fill="#fff" opacity="0"/>
    <g id="Group_15319" data-name="Group 15319" transform="translate(-1741.402 -17921.5)">
      <g id="Group_15313" data-name="Group 15313" transform="translate(0 0)">
        <path id="Union_32" data-name="Union 32" d="M0,9.1A6.9,6.9,0,0,1,4.782,2.533L6.7.083a.276.276,0,0,1,.394,0l1.922,2.45A6.9,6.9,0,1,1,0,9.1Z" transform="translate(0 0)" fill="#cbc02e" stroke="rgba(0,0,0,0)" stroke-miterlimit="10" stroke-width="1"/>
      </g>
      <path id="Union_34" data-name="Union 34" d="M.944,8.3a1.036,1.036,0,0,1-.378-.81A2.9,2.9,0,0,1,.593,7.1a4.485,4.485,0,0,1,.087-.45l.449-1.6c.041-.153.076-.3.1-.434a1.9,1.9,0,0,0,.041-.392A.58.58,0,0,0,1.148,3.8.705.705,0,0,0,.669,3.68a1.249,1.249,0,0,0-.355.055c-.121.039-.227.074-.313.106l.129-.517q.442-.18.842-.309a2.477,2.477,0,0,1,.755-.129,1.441,1.441,0,0,1,1,.313,1.047,1.047,0,0,1,.351.819c0,.07-.023.192-.023.368a2.472,2.472,0,0,1-.09.482L2.515,6.456a4.435,4.435,0,0,0-.1.439,2.287,2.287,0,0,0-.045.391.537.537,0,0,0,.139.431A.787.787,0,0,0,3,7.83a1.39,1.39,0,0,0,.392-.035,2,2,0,0,0,.3-.1l-.121.493q-.536.211-.858.325a2.244,2.244,0,0,1-.755.113l-.093,0A1.477,1.477,0,0,1,.944,8.3ZM1.96,1.711a.855.855,0,0,1-.094-.1A.959.959,0,0,1,1.96.294,1.061,1.061,0,0,1,2.715,0,1.054,1.054,0,0,1,3.47.294a.913.913,0,0,1,.089.092A.963.963,0,0,1,3.47,1.711a1.1,1.1,0,0,1-1.51,0Z" transform="translate(4.823 4.572)" fill="#fff" stroke="rgba(0,0,0,0)" stroke-miterlimit="10" stroke-width="1"/>
    </g>
  </g>
</svg>
