<svg xmlns="http://www.w3.org/2000/svg" width="17.431" height="17.431" viewBox="0 0 17.431 17.431">
  <g id="Group_2056" data-name="Group 2056" transform="translate(3296.212 -9370.015)">
    <path id="Path_1884" data-name="Path 1884" d="M8.716,0A8.716,8.716,0,1,1,0,8.716,8.715,8.715,0,0,1,8.716,0" transform="translate(-3296.212 9370.015)" fill="#069b4a"/>
    <path id="Path_1885" data-name="Path 1885" d="M13.791,19.879a1.015,1.015,0,0,1-.717-.3l-3.044-3.044A1.015,1.015,0,0,1,11.464,15.1l2.142,2.138L18,10.209a1.017,1.017,0,0,1,1.725,1.076L14.655,19.4a1.014,1.014,0,0,1-.746.47A.9.9,0,0,1,13.791,19.879Z" transform="translate(-3302.31 9363.926)" fill="#fff"/>
  </g>
</svg>
