<svg xmlns="http://www.w3.org/2000/svg" width="17.431" height="17.431" viewBox="0 0 17.431 17.431">
  <g id="Group_2058" data-name="Group 2058" transform="translate(3252.382 -9370.015)">
    <path id="Path_1876" data-name="Path 1876" d="M125.839,0a8.716,8.716,0,1,1-8.716,8.716A8.715,8.715,0,0,1,125.839,0" transform="translate(-3369.505 9370.015)" fill="#cbc02e"/>
    <path id="Path_1877" data-name="Path 1877" d="M137.281,24.941a1.233,1.233,0,0,1-.743-.167.772.772,0,0,1-.213-.634,3.275,3.275,0,0,1,.069-.576,6.262,6.262,0,0,1,.15-.645l.679-2.337a3.539,3.539,0,0,0,.138-.708c0-.259.035-.437.035-.541a1.516,1.516,0,0,0-.535-1.2,2.254,2.254,0,0,0-1.52-.461,3.945,3.945,0,0,0-1.151.19q-.611.19-1.284.455l-.2.76c.132-.046.294-.1.478-.156a1.952,1.952,0,0,1,.542-.08,1.1,1.1,0,0,1,.731.179.834.834,0,0,1,.19.628,2.705,2.705,0,0,1-.063.576q-.061.3-.155.639l-.685,2.349a6.642,6.642,0,0,0-.133.662,4.125,4.125,0,0,0-.04.576,1.5,1.5,0,0,0,.576,1.192,2.3,2.3,0,0,0,1.543.472,3.544,3.544,0,0,0,1.151-.167q.49-.167,1.307-.478l.184-.726a3.144,3.144,0,0,1-.455.15,2.176,2.176,0,0,1-.6.052" transform="translate(-3379.259 9358.961)" fill="#fff"/>
    <path id="Path_1878" data-name="Path 1878" d="M142.2,6.768a1.751,1.751,0,0,0-2.3,0,1.376,1.376,0,0,0-.144,1.941,1.336,1.336,0,0,0,.144.144,1.727,1.727,0,0,0,2.3,0,1.382,1.382,0,0,0,.135-1.95,1.431,1.431,0,0,0-.135-.135" transform="translate(-3383.458 9366.05)" fill="#fff"/>
  </g>
</svg>
