<svg xmlns="http://www.w3.org/2000/svg" width="17.431" height="17.431" viewBox="0 0 17.431 17.431">
  <g id="Group_2057" data-name="Group 2057" transform="translate(3274.297 -9370.015)">
    <path id="Path_1886" data-name="Path 1886" d="M67.278,0a8.716,8.716,0,1,1-8.716,8.716A8.715,8.715,0,0,1,67.278,0" transform="translate(-3332.859 9370.015)" fill="#339fd8"/>
    <path id="Path_1887" data-name="Path 1887" d="M79.326,32.89h-.95a.336.336,0,0,1-.359-.353c.079-2.466-.444-2.277,1.336-2.267,1.71-.012,1.2-.18,1.283,2.237a.341.341,0,0,1-.381.383Z" transform="translate(-3345.025 9351.076)" fill="#fff"/>
    <path id="Path_1888" data-name="Path 1888" d="M75.371,16.628c-.31,0-.62,0-.93,0-.253.016-.3-.272-.337-.462a2.2,2.2,0,0,1,.855-1.979c.423-.4,1-.574,1.449-.939a.8.8,0,0,0-.07-1.286A1.655,1.655,0,0,0,74.59,11.9a5.229,5.229,0,0,0-.887.931.335.335,0,0,1-.528.062q-.638-.483-1.272-.97a.327.327,0,0,1-.086-.486,4.2,4.2,0,0,1,6.1-1.347,2.869,2.869,0,0,1,.87,4.059,6.8,6.8,0,0,1-1.6,1.217c-.745.627-.28,1.217-.888,1.263Z" transform="translate(-3341.109 9364.197)" fill="#fff"/>
  </g>
</svg>
