<svg xmlns="http://www.w3.org/2000/svg" width="17.431" height="17.431" viewBox="0 0 17.431 17.431">
  <g id="Group_2060" data-name="Group 2060" transform="translate(3208.552 -9370.015)">
    <path id="Path_1882" data-name="Path 1882" d="M242.963,0a8.716,8.716,0,1,1-8.716,8.716A8.715,8.715,0,0,1,242.963,0" transform="translate(-3442.799 9370.015)" fill="#ce202c"/>
    <path id="Path_1883" data-name="Path 1883" d="M250.931,15.345l3.121-3.121a.948.948,0,1,0-1.317-1.364l-.023.023L249.591,14l-3.121-3.121a.948.948,0,1,0-1.364,1.317l.023.024,3.122,3.121-3.122,3.121a.948.948,0,0,0,1.317,1.364l.023-.023,3.121-3.121,3.122,3.121a.948.948,0,0,0,1.34-1.34Z" transform="translate(-3449.428 9363.385)" fill="#fff"/>
  </g>
</svg>
