<svg xmlns="http://www.w3.org/2000/svg" width="17.431" height="17.431" viewBox="0 0 17.431 17.431">
  <g id="Group_2059" data-name="Group 2059" transform="translate(3230.467 -9370.015)">
    <path id="Path_1879" data-name="Path 1879" d="M184.4,0a8.716,8.716,0,1,1-8.716,8.716A8.715,8.715,0,0,1,184.4,0" transform="translate(-3406.152 9370.015)" fill="#f79d25"/>
    <path id="Path_1880" data-name="Path 1880" d="M196.5,36.11a1.477,1.477,0,1,1,1.477-1.477A1.481,1.481,0,0,1,196.5,36.11" transform="translate(-3418.256 9349.267)" fill="#fff"/>
    <path id="Path_1881" data-name="Path 1881" d="M197.827,7.371l-.5,5.922a1.2,1.2,0,0,1-2.392,0l-.5-5.922a1.7,1.7,0,1,1,3.39-.14.885.885,0,0,1-.007.14" transform="translate(-3417.888 9366.553)" fill="#fff"/>
  </g>
</svg>
